# 3ds Max Wavefront OBJ Exporter v0.97b - (c)2007 guruware
# File Created: 19.11.2015 04:02:51

mtllib 3d-model.mtl

#
# object Group_001
#

v  -1.5728 10.0708 -0.0000
v  -2.6070 7.7826 0.3622
v  -0.1499 7.4727 0.9449
v  2.9374 3.6567 -0.1890
v  3.1457 7.1785 -0.0000
v  2.6828 7.1091 0.4764
v  -3.1457 10.1220 -0.0000
v  -1.3252 1.6668 1.2835
v  -1.7572 0.0000 0.7874
v  -0.2111 0.0000 1.2126
v  -2.4536 4.0117 0.6969
v  -0.1819 1.6668 1.5787
v  1.3350 0.0000 0.9016
v  2.4822 3.6327 0.5866
v  1.1464 1.6668 1.3465
v  2.3688 1.6668 0.5984
v  -0.1499 3.4945 1.4331
v  -3.0709 4.1503 -0.1063
v  -3.1457 7.7952 0.1378
v  -2.3851 1.6668 0.6142
v  2.2760 0.0578 0.6260
v  -2.9554 1.6668 0.1181
v  2.8197 1.6668 0.1496
v  -2.8780 0.0000 0.1181
v  -2.3383 0.0624 0.6142
v  2.6734 0.0000 -0.0000
v  -0.1499 7.4727 -0.9449
v  -2.6070 7.7826 -0.3622
v  2.6828 7.1091 -0.4764
v  -1.3252 1.6668 -1.2835
v  -0.2111 0.0000 -1.2126
v  -1.7572 0.0000 -0.7874
v  -2.4536 4.0117 -0.4803
v  -0.1819 1.6668 -1.5787
v  1.3350 0.0000 -0.9016
v  2.4822 3.6327 -0.5866
v  2.3688 1.6668 -0.5984
v  1.1464 1.6668 -1.3465
v  -0.1499 3.4945 -1.4331
v  -2.3851 1.6668 -0.3819
v  -2.3383 0.0624 -0.3819
v  2.2760 0.0578 -0.6260
v  2.6547 10.1004 -0.0000
v  0.0000 10.0629 0.2047
v  3.1457 10.0747 -0.1969
# 45 vertices

vn -0.0963 0.2216 0.9704
vn -0.2710 0.1126 0.9560
vn -0.0314 0.1693 0.9851
vn 0.8549 -0.0047 0.5188
vn 0.7179 -0.0109 0.6960
vn 0.4827 0.0532 0.8741
vn -0.0560 0.1402 0.9885
vn -0.3658 -0.0632 0.9285
vn -0.3359 -0.1180 0.9345
vn -0.0347 -0.2172 0.9755
vn -0.5640 0.0209 0.8255
vn -0.0362 -0.0694 0.9969
vn 0.2393 -0.2201 0.9457
vn 0.6309 0.0227 0.7755
vn 0.3125 -0.0451 0.9488
vn 0.6289 -0.0460 0.7761
vn -0.0119 0.1048 0.9944
vn -0.7845 -0.0436 0.6186
vn -0.4214 0.0508 0.9054
vn -0.5966 -0.0364 0.8017
vn 0.6402 -0.0901 0.7629
vn -0.6563 0.0050 0.7545
vn 0.7277 -0.0689 0.6825
vn -0.6699 -0.0228 0.7421
vn -0.4894 -0.0143 0.8719
vn 0.8112 -0.0606 0.5816
vn -0.0112 0.2672 -0.9636
vn -0.0380 0.1875 -0.9815
vn -0.4283 0.0635 -0.9014
vn 0.4595 0.0524 -0.8867
vn 0.7189 -0.0277 -0.6945
vn 0.6616 -0.0869 -0.7448
vn -0.1308 0.1222 -0.9839
vn -0.4235 -0.0455 -0.9048
vn -0.0347 -0.2172 -0.9755
vn -0.4751 -0.1093 -0.8731
vn -0.4578 0.0339 -0.8884
vn -0.0362 -0.0694 -0.9969
vn 0.2393 -0.2201 -0.9457
vn 0.5288 -0.0159 -0.8486
vn 0.7083 -0.0305 -0.7053
vn 0.3125 -0.0451 -0.9488
vn -0.0434 0.1144 -0.9925
vn -0.6710 -0.0212 -0.7411
vn -0.5304 0.0001 -0.8478
vn -0.6426 -0.0519 -0.7644
vn -0.6235 -0.0224 -0.7815
vn -0.6606 -0.0605 -0.7483
vn 0.6402 -0.0901 -0.7629
vn 0.8399 -0.0495 -0.5404
vn 0.8464 -0.0361 -0.5313
vn -0.6773 -0.0315 -0.7350
vn 0.2543 0.1818 0.9499
vn -0.0231 0.2759 0.9609
vn -0.1484 0.2231 -0.9634
vn 0.0180 0.4047 -0.9143
vn 0.4243 0.1370 0.8951
vn -0.2403 0.1282 -0.9622
vn -0.1440 -0.9896 0.0000
vn 0.0131 -0.9999 0.0000
vn -0.0386 -0.9993 0.0000
vn 0.1149 -0.9934 0.0000
vn -0.0460 -0.9989 0.0000
vn 0.0258 -0.9997 0.0000
vn -0.0368 -0.9993 0.0000
vn -0.0440 -0.9990 0.0000
vn -0.0000 -1.0000 0.0000
vn 0.2596 -0.2031 -0.9441
# 68 vertex normals

vt 0.2632 0.9851 0.0000
vt 0.1188 0.7616 0.0000
vt 0.4619 0.7313 0.0000
vt 0.8929 0.3585 0.0000
vt 0.9220 0.7026 0.0000
vt 0.8574 0.6958 0.0000
vt 0.0436 0.9901 0.0000
vt 0.2977 0.1641 0.0000
vt 0.2374 0.0013 0.0000
vt 0.4533 0.0013 0.0000
vt 0.1402 0.3932 0.0000
vt 0.4574 0.1641 0.0000
vt 0.6692 0.0013 0.0000
vt 0.8294 0.3562 0.0000
vt 0.6429 0.1641 0.0000
vt 0.8135 0.1641 0.0000
vt 0.4619 0.3427 0.0000
vt 0.0540 0.4067 0.0000
vt 0.0436 0.7628 0.0000
vt 0.1498 0.1641 0.0000
vt 0.8006 0.0069 0.0000
vt 0.0701 0.1641 0.0000
vt 0.8765 0.1641 0.0000
vt 0.0809 0.0013 0.0000
vt 0.1563 0.0074 0.0000
vt 0.8561 0.0013 0.0000
vt 0.7368 0.9851 0.0000
vt 0.5381 0.7313 0.0000
vt 0.8812 0.7616 0.0000
vt 0.1426 0.6958 0.0000
vt 0.0780 0.7026 0.0000
vt 0.1071 0.3585 0.0000
vt 0.9564 0.9901 0.0000
vt 0.7023 0.1641 0.0000
vt 0.5467 0.0013 0.0000
vt 0.7626 0.0013 0.0000
vt 0.8598 0.3932 0.0000
vt 0.5426 0.1641 0.0000
vt 0.3308 0.0013 0.0000
vt 0.1706 0.3562 0.0000
vt 0.1865 0.1641 0.0000
vt 0.3571 0.1641 0.0000
vt 0.5381 0.3427 0.0000
vt 0.9564 0.7628 0.0000
vt 0.9460 0.4067 0.0000
vt 0.8502 0.1641 0.0000
vt 0.8437 0.0074 0.0000
vt 0.9299 0.1641 0.0000
vt 0.1994 0.0069 0.0000
vt 0.1235 0.1641 0.0000
vt 0.1439 0.0013 0.0000
vt 0.9191 0.0013 0.0000
vt 0.8535 0.9880 0.0000
vt 0.4828 0.9844 0.0000
vt 0.1465 0.9880 0.0000
vt 0.5172 0.9844 0.0000
vt 0.9220 0.9855 0.0000
vt 0.0780 0.9855 0.0000
vt 0.4580 0.0063 0.0000
vt 0.4276 0.0119 0.0000
vt 0.0747 0.0124 0.0000
vt 0.0334 0.0063 0.0000
vt 0.3556 0.0063 0.0000
vt 0.1191 0.0063 0.0000
vt 0.2374 0.0063 0.0000
vt 0.0000 0.0000 0.0000
# 66 texture coords

g Group_001
usemtl embalagem_2
s off
f 1/1/1 2/2/2 3/3/3 
f 4/4/4 5/5/5 6/6/6 
f 7/7/7 2/2/2 1/1/1 
f 8/8/8 9/9/9 10/10/10 
f 2/2/2 11/11/11 3/3/3 
f 12/12/12 10/10/10 13/13/13 
f 14/14/14 15/15/15 16/16/16 
f 14/14/14 17/17/17 15/15/15 
f 3/3/3 11/11/11 17/17/17 
f 12/12/12 13/13/13 15/15/15 
f 18/18/18 11/11/11 19/19/19 
f 8/8/8 20/20/20 9/9/9 
f 16/16/16 15/15/15 21/21/21 
f 18/18/18 22/22/22 20/20/20 
f 11/11/11 20/20/20 8/8/8 
f 14/14/14 16/16/16 23/23/23 
f 20/20/20 24/24/24 25/25/25 
f 3/3/3 17/17/17 6/6/6 
f 16/16/16 26/26/26 23/23/23 
f 26/26/26 16/16/16 21/21/21 
f 22/22/22 24/24/24 20/20/20 
f 1/27/27 27/28/28 28/29/29 
f 29/30/30 5/31/31 4/32/32 
f 7/33/33 1/27/27 28/29/29 
f 30/34/34 31/35/35 32/36/36 
f 28/29/29 27/28/28 33/37/37 
f 34/38/38 35/39/39 31/35/35 
f 36/40/40 37/41/41 38/42/42 
f 36/40/40 38/42/42 39/43/43 
f 27/28/28 39/43/43 33/37/37 
f 38/42/42 35/39/39 34/38/38 
f 19/44/44 33/37/37 18/45/45 
f 40/46/46 41/47/47 22/48/48 
f 30/34/34 32/36/36 40/46/46 
f 37/41/41 42/49/49 38/42/42 
f 37/41/41 23/50/50 26/51/51 
f 18/45/45 40/46/46 22/48/48 
f 33/37/37 30/34/34 40/46/46 
f 37/41/41 36/40/40 23/50/50 
f 27/28/28 29/30/30 39/43/43 
f 19/44/44 28/29/29 33/37/37 
f 22/48/48 41/47/47 24/52/52 
f 40/46/46 32/36/36 41/47/47 
f 38/42/42 42/49/49 35/39/39 
f 42/49/49 37/41/41 26/51/51 
f 39/43/43 34/38/38 30/34/34 
f 19/19/19 11/11/11 2/2/2 
f 20/20/20 25/25/25 9/9/9 
f 15/15/15 13/13/13 21/21/21 
f 17/17/17 8/8/8 12/12/12 
f 18/18/18 20/20/20 11/11/11 
f 17/17/17 12/12/12 15/15/15 
f 11/11/11 8/8/8 17/17/17 
f 4/4/4 14/14/14 23/23/23 
f 6/6/6 17/17/17 14/14/14 
f 43/53/53 44/54/54 3/3/3 
f 1/1/1 3/3/3 44/54/54 
f 43/53/53 3/3/3 6/6/6 
f 4/4/4 6/6/6 14/14/14 
f 7/7/7 19/19/19 2/2/2 
f 8/8/8 10/10/10 12/12/12 
f 18/45/45 33/37/37 40/46/46 
f 39/43/43 38/42/42 34/38/38 
f 33/37/37 39/43/43 30/34/34 
f 4/32/32 23/50/50 36/40/40 
f 29/30/30 36/40/40 39/43/43 
f 43/55/55 27/28/28 44/56/56 
f 1/27/27 44/56/56 27/28/28 
f 43/55/55 29/30/30 27/28/28 
f 29/30/30 4/32/32 36/40/40 
f 7/33/33 28/29/29 19/44/44 
f 30/34/34 34/38/38 31/35/35 
f 43/53/53 6/6/6 45/57/57 
f 45/57/57 6/6/6 5/5/5 
f 29/30/30 45/58/58 5/31/31 
f 43/55/55 45/58/58 29/30/30 
usemtl groit12
f 26/59/59 21/60/60 42/60/60 
f 25/61/61 24/62/62 41/61/63 
f 13/63/64 35/63/64 42/60/60 21/60/60 
f 25/61/61 41/61/63 32/64/65 9/64/66 
f 9/64/66 32/64/65 31/65/67 10/65/67 
f 10/65/67 31/65/67 35/63/64 13/63/64 
usemtl skp_front_default
f 25/66/68 10/66/68 9/66/68 
# 4 polygons - 79 triangles

